<svg width="720" height="720" viewBox="0 0 720 720" fill="none" xmlns="http://www.w3.org/2000/svg">
  <rect width="720" height="720" fill="transparent"/>
  <g fill="#FFFFFF" fill-opacity="0.88">
    <circle cx="44" cy="96" r="1.6"/>
    <circle cx="136" cy="62" r="1.2"/>
    <circle cx="208" cy="144" r="1.4"/>
    <circle cx="318" cy="78" r="1.1"/>
    <circle cx="402" cy="168" r="1.5"/>
    <circle cx="542" cy="96" r="1.3"/>
    <circle cx="648" cy="124" r="1.8"/>
    <circle cx="88" cy="244" r="1.3"/>
    <circle cx="166" cy="286" r="1.8"/>
    <circle cx="274" cy="236" r="1.2"/>
    <circle cx="358" cy="298" r="1.3"/>
    <circle cx="474" cy="252" r="1.6"/>
    <circle cx="598" cy="216" r="1.4"/>
    <circle cx="684" cy="280" r="1.2"/>
    <circle cx="76" cy="394" r="1.5"/>
    <circle cx="138" cy="472" r="1.1"/>
    <circle cx="224" cy="426" r="1.7"/>
    <circle cx="334" cy="388" r="1.2"/>
    <circle cx="434" cy="468" r="1.4"/>
    <circle cx="566" cy="434" r="1.2"/>
    <circle cx="658" cy="392" r="1.6"/>
    <circle cx="118" cy="592" r="1.6"/>
    <circle cx="212" cy="642" r="1.2"/>
    <circle cx="306" cy="566" r="1.4"/>
    <circle cx="398" cy="628" r="1.2"/>
    <circle cx="516" cy="596" r="1.6"/>
    <circle cx="628" cy="644" r="1.4"/>
  </g>
</svg>
