<svg width="1600" height="1040" viewBox="0 0 1600 1040" fill="none" xmlns="http://www.w3.org/2000/svg">
  <rect width="1600" height="1040" rx="40" fill="#F8F5FA"/>
  <rect x="60" y="60" width="1480" height="160" rx="30" fill="#180018"/>
  <text x="112" y="130" fill="white" font-size="54" font-family="Manrope, Arial, sans-serif" font-weight="800">Agent surface audit</text>
  <text x="112" y="184" fill="#D5CFE3" font-size="24" font-family="Manrope, Arial, sans-serif">Public route map for the feed, search, and agent API.</text>

  <rect x="108" y="286" width="1384" height="628" rx="34" fill="white" stroke="#E7E0EB" stroke-width="2"/>
  <path d="M268 600C412 470 560 384 744 384C918 384 1054 454 1234 580" stroke="#6258F5" stroke-width="18" stroke-linecap="round"/>
  <path d="M744 384C808 462 882 510 988 552" stroke="#3D98C8" stroke-width="14" stroke-linecap="round"/>

  <circle cx="268" cy="600" r="34" fill="#6258F5"/>
  <circle cx="744" cy="384" r="42" fill="#6258F5"/>
  <circle cx="988" cy="552" r="28" fill="#3D98C8"/>
  <circle cx="1234" cy="580" r="34" fill="#C84C56"/>
  <circle cx="604" cy="702" r="18" fill="#F2B962"/>
  <circle cx="888" cy="720" r="14" fill="#9B8183"/>

  <g fill="#180018" font-family="Manrope, Arial, sans-serif">
    <text x="208" y="676" font-size="26" font-weight="800">Home feed</text>
    <text x="684" y="306" font-size="28" font-weight="800">Search JSON</text>
    <text x="944" y="632" font-size="24" font-weight="800">Agent API</text>
    <text x="1170" y="656" font-size="26" font-weight="800">Canonical links</text>
  </g>

  <g opacity="0.85">
    <circle cx="1240" cy="162" r="22" fill="#F2B962"/>
    <circle cx="1312" cy="132" r="36" fill="#C84C56"/>
    <circle cx="1372" cy="168" r="18" fill="#3D98C8"/>
  </g>
</svg>
