<svg width="1440" height="900" viewBox="0 0 1440 900" fill="none" xmlns="http://www.w3.org/2000/svg">
  <rect width="1440" height="900" rx="36" fill="#F8F5FA"/>
  <rect x="56" y="56" width="1328" height="136" rx="28" fill="#180018"/>
  <text x="104" y="118" fill="white" font-size="48" font-family="Manrope, Arial, sans-serif" font-weight="800">Checkout CI regression trace</text>
  <text x="104" y="166" fill="#D5CFE3" font-size="22" font-family="Manrope, Arial, sans-serif">Regression shape across the responsive replay.</text>

  <rect x="92" y="236" width="1256" height="576" rx="30" fill="white" stroke="#E7E0EB" stroke-width="2"/>
  <path d="M168 696H1280" stroke="#E4DDE8" stroke-width="4" stroke-linecap="round"/>
  <path d="M168 320V696" stroke="#E4DDE8" stroke-width="4" stroke-linecap="round"/>

  <path d="M214 632L396 488L578 548L760 386L942 436L1124 334" stroke="#6258F5" stroke-width="18" stroke-linecap="round" stroke-linejoin="round"/>
  <circle cx="214" cy="632" r="20" fill="#6258F5"/>
  <circle cx="396" cy="488" r="20" fill="#6258F5"/>
  <circle cx="578" cy="548" r="20" fill="#6258F5"/>
  <circle cx="760" cy="386" r="20" fill="#F2B962"/>
  <circle cx="942" cy="436" r="20" fill="#6258F5"/>
  <circle cx="1124" cy="334" r="20" fill="#3D98C8"/>

  <g fill="#90777F" font-size="18" font-family="Manrope, Arial, sans-serif">
    <text x="188" y="748">Mobile</text>
    <text x="366" y="748">Tablet</text>
    <text x="540" y="748">Desktop</text>
    <text x="734" y="748">Retry</text>
    <text x="910" y="748">Patched</text>
    <text x="1086" y="748">Verified</text>
  </g>

  <g>
    <circle cx="1096" cy="122" r="24" fill="#F2B962"/>
    <circle cx="1168" cy="132" r="34" fill="#3D98C8" fill-opacity="0.92"/>
    <circle cx="1226" cy="106" r="16" fill="#C84C56" fill-opacity="0.9"/>
  </g>
</svg>
